# xmcd
#
# Track frame offsets: 
#        150
#        13315
#        27265
#        42935
#        62212
#        88865
#        111007
#        129322
#        155059
#        171562
#        184952
#        205930
#
# Disc length: 2883 seconds
#
# Revision: 2
# Processed by: cddbd v1.5.2PL0 Copyright (c) Steve Scherf et al.
# Submitted via: ExactAudioCopy v0.99pb5
#
DISCID=ad0b410c
DTITLE=Native American Singers - Voices Across the Canyon Vol 01
DYEAR=1996
DGENRE=Native American
TTITLE0=Shaman's call - Carlos Nakai
TTITLE1=First cry - Sharon Burch
TTITLE2=Healing song - Primeaux and Mike
TTITLE3=Native funk - Burning Sky
TTITLE4=Lakota Lullaby - Robert Tree Cody
TTITLE5=Many Flags - Carlos Nakai and William Eaton
TTITLE6=I may want a man - Joanne Shenandoah and Paul Ortega
TTITLE7=When we walk together - Red Tail Chasing Hawks
TTITLE8=Lemondas verde cumbia - Southern Scratch
TTITLE9="Where are the Dancers?" - Northern Cree Singers
TTITLE10=Where rivers meet - William Eaton Ensemble
TTITLE11=Amazing Grace - Carlos Nakai
EXTD=YEAR: 1996
EXTT0=
EXTT1=
EXTT2=
EXTT3=
EXTT4=
EXTT5=
EXTT6=
EXTT7=
EXTT8=
EXTT9=
EXTT10=
EXTT11=
PLAYORDER=
